# xmcd CD database file
#
# Track frame offsets:
#	150
#	25190
#	51247
#	67523
#	90973
#	116156
#	134566
#	164635
#
# Disc length: 2557 seconds
#
# Revision: 0
# Processed by: cddbd v1.5.2PL0 Copyright (c) Steve Scherf et al.
# Submitted via: CDex 1.70beta2
#
DISCID=6509fb08
DTITLE=JiLL-Decoy association - Lovely
DYEAR=2012
DGENRE=Jazz
TTITLE0=リハル
TTITLE1=雲になって
TTITLE2=DISLIKE
TTITLE3=crazy crazy
TTITLE4=グラデーション
TTITLE5=今だけは
TTITLE6=I say,
TTITLE7=星を頼りに
EXTD=YEAR: 2012
EXTT0=
EXTT1=
EXTT2=
EXTT3=
EXTT4=
EXTT5=
EXTT6=
EXTT7=
PLAYORDER=
